Coordinates
version=1
nRows=21
nColumns=19
inDegrees=yes

Units are S.I. units (second, meters, Newtons, ...)
If the header above contains a line with 'inDegrees', this indicates whether rotational values are in degrees (yes) or radians (no).

endheader
time	pelvis_tilt	pelvis_list	pelvis_rotation	pelvis_tx	pelvis_ty	pelvis_tz	hip_flexion_r	hip_adduction_r	hip_rotation_r	knee_angle_r	knee_angle_r_beta	ankle_angle_r	hip_flexion_l	hip_adduction_l	hip_rotation_l	knee_angle_l	knee_angle_l_beta	ankle_angle_l
     11.40000000	     -7.85032062	     -2.12562867	      1.67470116	      2.20869437	      1.02068295	      1.01689996	     29.65373832	      4.99845396	     -7.93799410	     12.64683601	      0.22072893	      4.77905114	    -10.65392851	     -5.84527817	     -5.20900634	     62.84570378	      1.09686445	     -5.97701794
     11.40666667	     -7.08389969	     -2.19120516	      1.43178864	      2.20686320	      1.01696834	      1.01710475	     29.34501771	      5.08874671	     -8.15955882	     14.95997606	      0.26110084	      4.44941937	    -10.15193451	     -5.73015495	     -4.35151190	     67.14520689	      1.17190494	     -5.75453565
     11.41333333	     -7.44156183	     -1.98839699	      1.21633460	      2.20435923	      1.01149774	      1.01697490	     30.52892698	      4.73688385	     -8.49132970	     18.13678071	      0.31654654	      4.27448097	     -8.19223042	     -5.20569043	     -3.34189575	     71.69132633	      1.25124969	     -5.49401052
     11.42000000	     -7.28984921	     -1.94763462	      0.85301699	      2.20190674	      1.00623188	      1.01683619	     31.13716970	      4.59126487	     -8.75188553	     21.49616648	      0.37517888	      4.34073833	     -6.82439553	     -4.89522868	     -2.74260956	     76.04267039	      1.32719497	     -5.17397877
     11.42666667	     -7.23823657	     -1.92352972	      0.45022476	      2.19935870	      1.00054266	      1.01654986	     31.83553244	      4.43820183	     -8.93031938	     25.02641307	      0.43679331	      4.69953330	     -5.28046477	     -4.62454946	     -2.30808810	     80.32980336	      1.40201956	     -4.77495284
     11.43333333	     -7.03490776	     -1.94071863	      0.03262005	      2.19674696	      0.99483974	      1.01622653	     32.29966675	      4.32984692	     -9.02188403	     28.57862226	      0.49879105	      5.46438963	     -3.85023796	     -4.43589900	     -1.99655508	     84.47475420	      1.47436260	     -4.27834139
     11.44000000	     -7.03089022	     -2.02942165	     -0.42013339	      2.19408293	      0.98884498	      1.01591697	     32.85312100	      4.33932487	     -8.93540417	     31.99804247	      0.55847120	      6.56269109	     -2.13007355	     -4.38833595	     -1.80994467	     88.52647989	      1.54507855	     -3.65056089
     11.44666667	     -7.05256740	     -2.15519095	     -0.86295343	      2.19137978	      0.98299231	      1.01564352	     33.27318649	      4.42914149	     -8.72755462	     35.19680860	      0.61430020	      8.00612246	     -0.29696386	     -4.44691648	     -1.67243432	     92.41597194	      1.61296299	     -2.97159943
     11.45333333	     -7.19704355	     -2.37191183	     -1.30186630	      2.18864912	      0.97725471	      1.01549782	     33.63420987	      4.67696179	     -8.41449027	     38.08698244	      0.66474325	      9.71402679	      1.76099639	     -4.68659999	     -1.56084151	     96.14926425	      1.67812123	     -2.21736713
     11.46000000	     -7.41928751	     -2.66523561	     -1.67447134	      2.18595389	      0.97192087	      1.01545503	     33.84639239	      5.03288241	     -8.09911120	     40.58862743	      0.70840519	     11.60140054	      4.01245810	     -5.09121005	     -1.38675447	     99.67954092	      1.73973619	     -1.43546613
     11.46666667	     -7.69674345	     -3.02386432	     -1.98735774	      2.18323344	      0.96711092	      1.01550007	     33.88089417	      5.48578770	     -7.78204533	     42.67701046	      0.74485435	     13.59541875	      6.44737211	     -5.62593317	     -1.12996184	    102.98250661	      1.79738381	     -0.64470419
     11.47333333	     -7.99366212	     -3.39834337	     -2.21414490	      2.18055651	      0.96295870	      1.01560926	     33.69843107	      5.95808833	     -7.50625410	     44.35175540	      0.77408416	     15.59772114	      9.03090471	     -6.21259234	     -0.75553300	    106.00780163	      1.85018517	      0.11174986
     11.48000000	     -8.30758729	     -3.79312333	     -2.32058868	      2.17797968	      0.95952499	      1.01572456	     33.27772548	      6.42761727	     -7.31826813	     45.58018345	      0.79552427	     17.52933041	     11.76989679	     -6.84014065	     -0.23707779	    108.72557614	      1.89761928	      0.81327594
     11.48666667	     -7.89710777	     -4.10798859	     -2.50371494	      2.17564481	      0.95775062	      1.01603392	     31.84519903	      6.89850097	     -6.94024457	     46.41669516	      0.81012416	     19.39872665	     13.70365613	     -7.38564868	      0.10053098	    110.93459154	      1.93617388	      1.46376784
     11.49333333	     -8.69086849	     -4.52570324	     -2.22094237	      2.17321524	      0.95521947	      1.01594305	     31.45971533	      7.23405692	     -7.14929640	     46.76303134	      0.81616887	     20.93687995	     17.31598502	     -7.94055239	      1.09591800	    113.06885958	      1.97342388	      2.05251112
     11.50000000	     -8.77998404	     -4.80319937	     -2.04180626	      2.17114263	      0.95432020	      1.01604011	     30.09780064	      7.52903443	     -7.11543545	     46.74106778	      0.81578553	     22.34369128	     20.08319287	     -8.31440311	      1.80964161	    114.62884142	      2.00065070	      2.64409432
     11.50666667	     -8.82579597	     -4.93836574	     -1.80930449	      2.16925606	      0.95412915	      1.01613154	     28.51592481	      7.68565809	     -7.04673951	     46.41366281	      0.81007123	     23.53206695	     22.83382022	     -8.47961896	      2.43659534	    115.76456476	      2.02047281	      3.17359089
     11.51333333	     -8.86193139	     -4.95284988	     -1.54316733	      2.16762914	      0.95461117	      1.01622511	     26.74321557	      7.73049472	     -6.96009527	     45.76175342	      0.79869327	     24.48180000	     25.54546798	     -8.46475659	      2.93869701	    116.45929044	      2.03259806	      3.67135944
     11.52000000	     -8.88336206	     -4.86551356	     -1.25049167	      2.16627688	      0.95572261	      1.01633344	     24.79194015	      7.68081786	     -6.86878966	     44.80544839	      0.78200260	     25.16599232	     28.17207152	     -8.29931520	      3.28964915	    116.72275612	      2.03719641	      4.16508843
     11.52666667	     -8.95302053	     -4.48082556	     -1.14422285	      2.16518533	      0.95740364	      1.01667639	     22.79452692	      7.42787432	     -6.47421047	     43.68570596	      0.76245941	     25.61316253	     30.66081709	     -7.89373893	      3.16734532	    116.50377679	      2.03337450	      4.66929791
     11.53333333	     -9.12351742	     -4.12912136	     -0.92689406	      2.16433880	      0.95939683	      1.01691877	     20.77125884	      7.16301355	     -6.24045825	     42.29379180	      0.73816592	     25.80335777	     33.18410547	     -7.46580905	      3.04264095	    115.94313941	      2.02358953	      5.16474489
